<?xml version="1.0" encoding="UTF-8"?>
<svg version="1.1" xmlns="http://www.w3.org/2000/svg" width="172" height="203">
<path d="M0 0 C2 3 2 3 1.9375 6.5 C1 10 1 10 -1.06640625 11.5625 C-4.56763284 13.27814765 -8.14284056 14.41872016 -11.875 15.5 C-15.90451646 16.68067117 -19.8453688 17.87411105 -23.6953125 19.5625 C-27.21093838 21.0917557 -30.68978485 22.13796687 -34.375 23.15625 C-37.09285223 23.97895169 -37.09285223 23.97895169 -39.95703125 25.30859375 C-45.08815836 27.55458348 -50.43486103 29.19244467 -55.75408936 30.93023682 C-71.27278125 36.0051533 -86.65076052 41.43505074 -102 47 C-101.68804687 47.61617187 -101.37609375 48.23234375 -101.0546875 48.8671875 C-100.36397335 50.26396501 -99.71829488 51.684141 -99.125 53.125 C-97.71422108 55.47629819 -96.4514355 55.83180691 -94 57 C-93.11054687 57.56847656 -93.11054687 57.56847656 -92.203125 58.1484375 C-84.65697151 62.88742189 -74.7618522 66.82410282 -65.72265625 65.53125 C-62.69483351 64.54452196 -59.90244114 63.30802414 -57 62 C-48.7620705 58.45430083 -40.42589642 55.25546897 -32 52.1875 C-23.72463898 49.15060775 -15.48442514 46.05570622 -7.3125 42.75 C4.73287175 37.87859478 16.87050056 33.32517837 29.1550293 29.09130859 C32.42026538 27.95664601 35.60687144 26.75810024 38.765625 25.3515625 C42.51202458 23.78603804 44.97911432 23.46893963 49 24 C51.6221474 26.03582174 52.84635649 27.2338129 53.50615788 30.5241003 C53.5089648 31.47995809 53.51177172 32.43581587 53.5146637 33.42063904 C53.52738815 34.52116608 53.54011261 35.62169312 53.55322266 36.75556946 C53.54669678 37.95827988 53.5401709 39.1609903 53.53344727 40.40014648 C53.54206284 41.67041687 53.55067841 42.94068726 53.55955505 44.24945068 C53.58205626 47.73097993 53.57910779 51.21205475 53.57023358 54.69362903 C53.5651229 57.60122387 53.57241693 60.50873337 53.57970566 63.41631943 C53.5967072 70.27640147 53.5931367 77.1362611 53.57641602 83.99633789 C53.55949541 91.0708857 53.57532715 98.14481647 53.6076389 105.21929687 C53.63434027 111.29588491 53.64160936 117.37228093 53.63312382 123.44892174 C53.62819593 127.07706874 53.630402 130.70484451 53.65091133 134.33294487 C53.67268927 138.37917433 53.65386409 142.42423505 53.63110352 146.47045898 C53.64864182 148.27148827 53.64864182 148.27148827 53.66653442 150.10890198 C53.57351799 158.21935719 53.57351799 158.21935719 50.66099548 162.18373108 C47.58839894 164.2809393 44.67450578 165.63412298 41.1875 166.9375 C40.53370361 167.18636963 39.87990723 167.43523926 39.20629883 167.69165039 C37.14214696 168.47409595 35.07169173 169.2377738 33 170 C31.69748808 170.48844197 30.3953971 170.97800805 29.09375 171.46875 C27.12923524 172.20852337 25.16407137 172.94620387 23.19628906 173.67724609 C18.85491539 175.29086327 14.53871321 176.96020317 10.22998047 178.65893555 C3.88895074 181.15820616 -2.44859572 183.53675111 -8.9375 185.625 C-14.16350139 187.32275918 -19.0350482 189.32689601 -23.9921875 191.6796875 C-28.48787089 193.65311735 -33.10308444 195.24888004 -37.75048828 196.82641602 C-40.83501613 197.87362382 -43.82787982 198.92187282 -46.796875 200.26953125 C-58.47412332 205.53173073 -74.25166577 204.61629135 -86.078125 200.265625 C-102.85826772 192.99722094 -102.85826772 192.99722094 -109 187 C-109 186.34 -109 185.68 -109 185 C-109.66 185 -110.32 185 -111 185 C-112.4375 183.27734375 -112.4375 183.27734375 -114 180.9375 C-114.515625 180.18339844 -115.03125 179.42929688 -115.5625 178.65234375 C-119.32109066 171.71733543 -119.29700233 165.07240353 -119.29052734 157.34838867 C-119.29724457 156.19300095 -119.30396179 155.03761322 -119.31088257 153.84721375 C-119.32984053 150.03742136 -119.33378568 146.22780534 -119.3359375 142.41796875 C-119.34074078 140.43335517 -119.34554781 138.44874156 -119.35085833 136.46412927 C-119.36710926 130.22664287 -119.37203033 123.98921413 -119.37060547 117.75170898 C-119.36940494 111.33904884 -119.3904963 104.92672572 -119.4220928 98.5141508 C-119.4483342 92.98946701 -119.45896948 87.46489277 -119.45769465 81.94014722 C-119.45718729 78.6489118 -119.46461347 75.3580417 -119.48405075 72.06685448 C-119.50372824 68.39088645 -119.49786469 64.7157779 -119.48583984 61.03979492 C-119.49707886 59.96465637 -119.50831787 58.88951782 -119.51989746 57.78179932 C-119.46166886 50.74819716 -118.07661768 45.32675625 -115 39 C-114.34 39 -113.68 39 -113 39 C-113 38.34 -113 37.68 -113 37 C-103.91913485 32.77270071 -94.56535644 29.27545699 -84.9375 26.5 C-79.89154967 25.04172864 -75.06202703 23.11306349 -70.17578125 21.1953125 C-66.66133483 19.87253193 -63.1293445 18.77364282 -59.51171875 17.7734375 C-56.71603492 16.91255819 -53.99932788 15.88016696 -51.26298523 14.84863281 C-44.80159291 12.42557257 -38.30164732 10.10750232 -31.80102539 7.79223633 C-29.97521771 7.13903438 -28.15130922 6.48049936 -26.3293457 5.81665039 C-23.67344515 4.84984613 -21.0114768 3.90176058 -18.34765625 2.95703125 C-17.54425308 2.6602095 -16.74084991 2.36338776 -15.9131012 2.05757141 C-10.79198341 0.267876 -5.42874096 -1.17400749 0 0 Z M29.875 42.25 C28.43640625 42.77267456 28.43640625 42.77267456 26.96875 43.3059082 C16.97257181 46.96556065 7.05201804 50.81727253 -2.85986328 54.69824219 C-10.15241652 57.54777108 -17.46989205 60.27630381 -24.8605957 62.86035156 C-29.01234867 64.36749697 -33.06191158 66.0835262 -37.125 67.8125 C-40.75179119 69.31052245 -44.42919421 70.6270098 -48.13671875 71.91015625 C-52.15827403 73.44087102 -56.0678492 75.25237742 -60 77 C-60 114.29 -60 151.58 -60 190 C-55.38823154 190 -53.99350672 189.79703165 -50.0625 188 C-44.28626412 185.48397087 -38.43224246 183.30788664 -32.5 181.1875 C-24.30045224 178.24357104 -16.19237001 175.12785283 -8.11694336 171.86010742 C-1.1956458 169.0628385 5.77770789 166.43005433 12.77490234 163.83007812 C17.27247896 162.15224616 21.76157192 160.45212315 26.25 158.75 C27.15613037 158.40839844 28.06226074 158.06679687 28.99584961 157.71484375 C29.84800049 157.39128906 30.70015137 157.06773437 31.578125 156.734375 C32.33512695 156.44788086 33.09212891 156.16138672 33.87207031 155.86621094 C35.96068995 155.01600184 37.98303446 154.00848277 40 153 C40 115.38 40 77.76 40 39 C36.70739273 39 32.92754549 41.13923043 29.875 42.25 Z M-105 64 C-105.13913756 77.68238632 -105.24569172 91.3646038 -105.31087303 105.04755402 C-105.34215999 111.40142337 -105.38458662 117.75480802 -105.45263672 124.10839844 C-105.51792032 130.2422104 -105.55372587 136.37555671 -105.56926346 142.50968933 C-105.58033341 144.84766468 -105.6019508 147.18561509 -105.63438034 149.52339172 C-105.67806117 152.80326014 -105.68392894 156.08121474 -105.68115234 159.36132812 C-105.702724 160.3237442 -105.72429565 161.28616028 -105.746521 162.27774048 C-105.68351758 169.17465314 -103.73289375 173.02076055 -99 178 C-91.40643334 185.21821926 -83.2481693 187.95036614 -73 190 C-73 153.37 -73 116.74 -73 79 C-79.41124816 76.42293166 -79.41124816 76.42293166 -85.84765625 73.91015625 C-90.89761814 71.97745479 -95.5349321 69.71143311 -100.1875 66.953125 C-101.95372306 65.84485602 -101.95372306 65.84485602 -104 66 C-104.33 65.34 -104.66 64.68 -105 64 Z " fill="#3E2C1D" transform="translate(119,0)"/>
<path d="M0 0 C2.6221474 2.03582174 3.84635649 3.2338129 4.50615788 6.5241003 C4.5089648 7.47995809 4.51177172 8.43581587 4.5146637 9.42063904 C4.52738815 10.52116608 4.54011261 11.62169312 4.55322266 12.75556946 C4.54669678 13.95827988 4.5401709 15.1609903 4.53344727 16.40014648 C4.54637062 18.30555206 4.54637062 18.30555206 4.55955505 20.24945068 C4.58205626 23.73097993 4.57910779 27.21205475 4.57023358 30.69362903 C4.5651229 33.60122387 4.57241693 36.50873337 4.57970566 39.41631943 C4.5967072 46.27640147 4.5931367 53.1362611 4.57641602 59.99633789 C4.55949541 67.0708857 4.57532715 74.14481647 4.6076389 81.21929687 C4.63434027 87.29588491 4.64160936 93.37228093 4.63312382 99.44892174 C4.62819593 103.07706874 4.630402 106.70484451 4.65091133 110.33294487 C4.67268927 114.37917433 4.65386409 118.42423505 4.63110352 122.47045898 C4.64864182 124.27148827 4.64864182 124.27148827 4.66653442 126.10890198 C4.57351799 134.21935719 4.57351799 134.21935719 1.66099548 138.18373108 C-1.41160106 140.2809393 -4.32549422 141.63412298 -7.8125 142.9375 C-8.79319458 143.31080444 -8.79319458 143.31080444 -9.79370117 143.69165039 C-11.85785304 144.47409595 -13.92830827 145.2377738 -16 146 C-17.30251192 146.48844197 -18.6046029 146.97800805 -19.90625 147.46875 C-21.87076476 148.20852337 -23.83592863 148.94620387 -25.80371094 149.67724609 C-30.14508461 151.29086327 -34.46128679 152.96020317 -38.77001953 154.65893555 C-45.11104926 157.15820616 -51.44859572 159.53675111 -57.9375 161.625 C-63.16350139 163.32275918 -68.0350482 165.32689601 -72.9921875 167.6796875 C-78.8546516 170.25308083 -84.94958175 172.21934113 -91.00097656 174.29785156 C-94.66713847 175.58557526 -98.28438453 177.00699389 -101.8984375 178.43359375 C-104 179 -104 179 -107 178 C-107 169 -107 169 -106 167 C-107.32 167 -108.64 167 -110 167 C-110 129.38 -110 91.76 -110 53 C-109.67 53 -109.34 53 -109 53 C-109 90.29 -109 127.58 -109 166 C-101.00725276 163.65350617 -101.00725276 163.65350617 -93.4375 160.6875 C-88.68021376 158.65126028 -83.88882985 156.87114161 -79 155.1875 C-71.69726129 152.66312712 -64.53280084 149.85901403 -57.37084961 146.96166992 C-51.66776466 144.6574764 -45.94175189 142.43822775 -40.17456055 140.30004883 C-36.26769595 138.85129221 -32.37055864 137.38003924 -28.48046875 135.88671875 C-27.0562561 135.34047852 -27.0562561 135.34047852 -25.60327148 134.78320312 C-23.73621696 134.06622352 -21.86981538 133.34754072 -20.00415039 132.62695312 C-18.72592407 132.13678711 -18.72592407 132.13678711 -17.421875 131.63671875 C-16.66487305 131.34498779 -15.90787109 131.05325684 -15.12792969 130.75268555 C-13 130 -13 130 -9 129 C-9.495 73.065 -9.495 73.065 -10 16 C-22.72268825 20.62643209 -35.40455219 25.24529562 -48 30.1875 C-56.56240029 33.54386448 -65.14013693 36.81109034 -73.82397461 39.84204102 C-78.08156452 41.39433166 -82.22942856 43.16574123 -86.37890625 44.984375 C-88.92153606 45.96959669 -91.31538571 46.55337339 -94 47 C-94.495 45.515 -94.495 45.515 -95 44 C-93 42 -93 42 -90 41 C-90.66 41 -91.32 41 -92 41 C-92.66 38.36 -93.32 35.72 -94 33 C-93.28682617 32.73896484 -92.57365234 32.47792969 -91.83886719 32.20898438 C-79.11993186 27.54605528 -66.43421548 22.84328864 -53.87475586 17.76416016 C-42.64370176 13.22647715 -31.29672213 9.0381612 -19.8449707 5.09130859 C-16.57973462 3.95664601 -13.39312856 2.75810024 -10.234375 1.3515625 C-6.48797542 -0.21396196 -4.02088568 -0.53106037 0 0 Z " fill="#423021" transform="translate(168,24)"/>
<path d="M0 0 C0 1.98 0 3.96 0 6 C0.99 5.67 1.98 5.34 3 5 C2.67 5.99 2.34 6.98 2 8 C-0.0625 8.6875 -0.0625 8.6875 -2 9 C-2 9.99 -2 10.98 -2 12 C-3.7325 12.928125 -3.7325 12.928125 -5.5 13.875 C-6.1496875 14.22304687 -6.799375 14.57109375 -7.46875 14.9296875 C-10.8366112 16.35375226 -14.45261329 17.11315332 -18 18 C-18 55.62 -18 93.24 -18 132 C-16.68 132 -15.36 132 -14 132 C-14 136 -14 140 -14 144 C-36.16875133 144.84274028 -36.16875133 144.84274028 -46 140 C-46.66 139.01 -47.32 138.02 -48 137 C-47.34 136.67 -46.68 136.34 -46 136 C-46.66 134.68 -47.32 133.36 -48 132 C-47.34 132 -46.68 132 -46 132 C-45.01 130.02 -45.01 130.02 -44 128 C-42.041036 128.30852185 -40.08284287 128.6219418 -38.125 128.9375 C-37.03445312 129.11152344 -35.94390625 129.28554687 -34.8203125 129.46484375 C-32 130 -32 130 -30 131 C-30.33 94.37 -30.66 57.74 -31 20 C-32.98 19.01 -34.96 18.02 -37 17 C-37 16.34 -37 15.68 -37 15 C-37.66 14.67 -38.32 14.34 -39 14 C-39 13.34 -39 12.68 -39 12 C-39.66 11.67 -40.32 11.34 -41 11 C-41 9.02 -41 7.04 -41 5 C-39.27054347 5.14235457 -37.54144346 5.28904382 -35.8125 5.4375 C-34.36810547 5.55931641 -34.36810547 5.55931641 -32.89453125 5.68359375 C-30 6 -30 6 -27.62792969 6.62524414 C-24.49550511 7.07194348 -22.95810728 6.52657785 -20.05859375 5.3125 C-19.14529297 4.94382812 -18.23199219 4.57515625 -17.29101562 4.1953125 C-16.34935547 3.80085938 -15.40769531 3.40640625 -14.4375 3 C-12.56540545 2.2190035 -10.68921921 1.44772457 -8.80859375 0.6875 C-7.98157959 0.34074219 -7.15456543 -0.00601563 -6.30249023 -0.36328125 C-3.75710402 -1.0671692 -2.457052 -0.87537551 0 0 Z " fill="#382516" transform="translate(76,59)"/>
<path d="M0 0 C1.52364827 2.85684051 1.51955068 4.69275209 1 7.875 C-2.32814098 11.0283696 -5.42575115 12.63161059 -9.76171875 14.0234375 C-10.87256836 14.38614746 -11.98341797 14.74885742 -13.12792969 15.12255859 C-14.30258789 15.49461426 -15.47724609 15.86666992 -16.6875 16.25 C-17.89180664 16.6413916 -19.09611328 17.0327832 -20.33691406 17.43603516 C-22.7595628 18.22321819 -25.18354217 19.00631875 -27.60888672 19.78515625 C-32.16409161 21.24911843 -36.70850419 22.74415877 -41.25 24.25 C-41.94440186 24.47606934 -42.63880371 24.70213867 -43.35424805 24.93505859 C-46.42270315 25.94687075 -49.39281062 27.04491343 -52.359375 28.328125 C-56.83199336 30.22850791 -61.38320017 31.74164899 -66 33.25 C-73.75858751 35.78108265 -73.75858751 35.78108265 -81.4609375 38.4765625 C-82.12867187 38.71455566 -82.79640625 38.95254883 -83.484375 39.19775391 C-85.25087587 39.83053715 -87.01236938 40.4772508 -88.7734375 41.125 C-92.55126478 42.00313903 -95.23848585 41.75360185 -99 40.875 C-101 38.875 -101 38.875 -101.3125 35.9375 C-101 32.875 -101 32.875 -99.87695312 31.33251953 C-97.30836269 29.33791952 -94.73812818 28.52881142 -91.65625 27.4921875 C-91.02291245 27.2765213 -90.38957489 27.0608551 -89.73704529 26.83865356 C-87.66077288 26.13400508 -85.58051517 25.4420099 -83.5 24.75 C-82.0603682 24.26379017 -80.62099869 23.77680304 -79.18188477 23.2890625 C-72.17064059 20.91832979 -65.14550125 18.58918766 -58.12109375 16.2578125 C-56.90679687 15.85449707 -55.6925 15.45118164 -54.44140625 15.03564453 C-52.16017949 14.28000406 -49.87768494 13.52817676 -47.59375 12.78076172 C-41.25789606 10.69706651 -41.25789606 10.69706651 -35.0703125 8.21875 C-32.36487238 7.03468969 -29.77969783 6.15140526 -26.9375 5.375 C-23.02751335 4.2451854 -19.614396 2.76434336 -16 0.875 C-11.00915904 -1.18643431 -4.99970924 -2.81233645 0 0 Z " fill="#433122" transform="translate(136,17.125)"/>
<path d="M0 0 C0.33 0 0.66 0 1 0 C1 37.29 1 74.58 1 113 C8.99274724 110.65350617 8.99274724 110.65350617 16.5625 107.6875 C21.59291472 105.54370927 26.66704129 103.59567186 31.8125 101.75 C32.51769775 101.49178467 33.22289551 101.23356934 33.94946289 100.9675293 C38.31136911 99.4226768 42.39821198 98.50529437 47 98 C46.67 98.66 46.34 99.32 46 100 C46.495 100.350625 46.99 100.70125 47.5 101.0625 C49.73063966 103.94374289 49.19980621 106.47009026 49 110 C48.2174585 110.3000293 47.43491699 110.60005859 46.62866211 110.90917969 C40.82999221 113.13549702 35.03666555 115.37327498 29.25390625 117.640625 C27.0234375 118.51041667 24.79296875 119.38020833 22.5625 120.25 C21.43134766 120.69601563 20.30019531 121.14203125 19.13476562 121.6015625 C18.03970703 122.02695313 16.94464844 122.45234375 15.81640625 122.890625 C14.84131104 123.27250977 13.86621582 123.65439453 12.86157227 124.04785156 C9.91307344 125.02892361 7.07340598 125.57082172 4 126 C3.855625 125.2575 3.71125 124.515 3.5625 123.75 C3.06940976 121.08041771 3.06940976 121.08041771 2.3125 118.875 C2 117 2 117 4 114 C2.68 114 1.36 114 0 114 C0 76.38 0 38.76 0 0 Z " fill="#5F4F41" transform="translate(58,77)"/>
<path d="M0 0 C0 0.66 0 1.32 0 2 C0.78375 1.649375 1.5675 1.29875 2.375 0.9375 C3.24125 0.628125 4.1075 0.31875 5 0 C5.66 0.33 6.32 0.66 7 1 C7 1.66 7 2.32 7 3 C7.66 3 8.32 3 9 3 C10.125 7.75 10.125 7.75 9 10 C4.7063938 11.81114864 0.23698267 13.16763052 -4.1875 14.625 C-6.03698242 15.25535156 -6.03698242 15.25535156 -7.92382812 15.8984375 C-9.11814453 16.29546875 -10.31246094 16.6925 -11.54296875 17.1015625 C-12.63633545 17.46588379 -13.72970215 17.83020508 -14.85620117 18.20556641 C-18.03656711 19.00924046 -20.73486855 19.14921052 -24 19 C-24.33 18.34 -24.66 17.68 -25 17 C-24.34 16.67 -23.68 16.34 -23 16 C-23.66 15.67 -24.32 15.34 -25 15 C-24.690625 14.401875 -24.38125 13.80375 -24.0625 13.1875 C-22.89790296 10.91043228 -22.89790296 10.91043228 -22 8 C-22.99 7.67 -23.98 7.34 -25 7 C-22.29380548 6.01455946 -19.58530517 5.03651592 -16.875 4.0625 C-16.11445312 3.78470703 -15.35390625 3.50691406 -14.5703125 3.22070312 C-9.77847898 1.50638337 -5.15087303 0 0 0 Z " fill="#352312" transform="translate(66,17)"/>
<path d="M0 0 C5.59995022 1.21738048 9.82793695 3.51366107 14.66796875 6.5625 C16.73677421 7.83774357 18.80923946 8.95246393 21 10 C20.01 10 19.02 10 18 10 C18.66 12.97 19.32 15.94 20 19 C21.32 19.33 22.64 19.66 24 20 C23.34 20 22.68 20 22 20 C22.33 20.99 22.66 21.98 23 23 C13.57277267 20.87055571 6.8867344 16.73959168 -2 12 C-2.33 45.99 -2.66 79.98 -3 115 C-3.33 115 -3.66 115 -4 115 C-4 80.02 -4 45.04 -4 9 C-2.35 8.34 -0.7 7.68 1 7 C0.67 4.69 0.34 2.38 0 0 Z " fill="#6E5F54" transform="translate(17,54)"/>
<path d="M0 0 C-1.49739583 1.20442708 -2.99479167 2.40885417 -4.4921875 3.61328125 C-6.25292107 5.12270545 -6.25292107 5.12270545 -8 8 C-5.03 8.99 -2.06 9.98 1 11 C1 10.34 1 9.68 1 9 C2.32 9.66 3.64 10.32 5 11 C1.60667609 12.31905326 -1.79006569 13.62907401 -5.1875 14.9375 C-6.14720703 15.31068359 -7.10691406 15.68386719 -8.09570312 16.06835938 C-9.49272461 16.60493164 -9.49272461 16.60493164 -10.91796875 17.15234375 C-11.77156982 17.48226318 -12.6251709 17.81218262 -13.50463867 18.15209961 C-15.99065961 18.99682622 -18.41682623 19.54485975 -21 20 C-20.731875 19.29875 -20.46375 18.5975 -20.1875 17.875 C-19.96999265 14.53988725 -20.36830612 14.13449613 -22.4375 11.6875 C-23.283125 10.800625 -24.12875 9.91375 -25 9 C-21.60897848 5.60897848 -16.9314958 4.48967774 -12.5 2.8125 C-11.52417969 2.43158203 -10.54835938 2.05066406 -9.54296875 1.65820312 C-8.61097656 1.30306641 -7.67898437 0.94792969 -6.71875 0.58203125 C-5.86216797 0.25436768 -5.00558594 -0.0732959 -4.12304688 -0.41088867 C-2 -1 -2 -1 0 0 Z " fill="#483829" transform="translate(121,41)"/>
<path d="M0 0 C-1.49835228 4.66154042 -4.88463591 5.86610751 -9 8 C-9 8.99 -9 9.98 -9 11 C-7.02 11 -5.04 11 -3 11 C-3 11.66 -3 12.32 -3 13 C-4.60149886 13.67305018 -6.20631029 14.33822227 -7.8125 15 C-8.70582031 15.37125 -9.59914063 15.7425 -10.51953125 16.125 C-13 17 -13 17 -16 17 C-16 16.01 -16 15.02 -16 14 C-16.99 13.67 -17.98 13.34 -19 13 C-18.34 13 -17.68 13 -17 13 C-17 11.68 -17 10.36 -17 9 C-17.99 8.34 -18.98 7.68 -20 7 C-18.68 7 -17.36 7 -16 7 C-17.65 6.67 -19.3 6.34 -21 6 C-18.04048448 4.02698966 -15.53959527 3.01344745 -12.1875 1.875 C-11.17042969 1.52179687 -10.15335938 1.16859375 -9.10546875 0.8046875 C-5.93558781 -0.01669046 -3.25887188 -0.14613775 0 0 Z " fill="#473527" transform="translate(99,28)"/>
<path d="M0 0 C0.66 0.33 1.32 0.66 2 1 C1.67 1.66 1.34 2.32 1 3 C1.66 3.33 2.32 3.66 3 4 C2.01 5.485 2.01 5.485 1 7 C1.99 6.67 2.98 6.34 4 6 C3.67 7.32 3.34 8.64 3 10 C0.01758453 10.77321882 -2.97580475 11.41196203 -6 12 C-6.33 12.99 -6.66 13.98 -7 15 C-12.53846154 15.36923077 -12.53846154 15.36923077 -14.875 13.5 C-15.24625 13.005 -15.6175 12.51 -16 12 C-15.34 11.01 -14.68 10.02 -14 9 C-13.34 9 -12.68 9 -12 9 C-11.67 8.34 -11.34 7.68 -11 7 C-10.01 7 -9.02 7 -8 7 C-8 5.68 -8 4.36 -8 3 C-7.67 2.34 -7.34 1.68 -7 1 C-5.5459375 1.0309375 -5.5459375 1.0309375 -4.0625 1.0625 C-1.12534105 1.35618499 -1.12534105 1.35618499 0 0 Z " fill="#362413" transform="translate(105,25)"/>
<path d="M0 0 C0 0.66 0 1.32 0 2 C0.78375 1.649375 1.5675 1.29875 2.375 0.9375 C3.24125 0.628125 4.1075 0.31875 5 0 C5.66 0.33 6.32 0.66 7 1 C7 1.66 7 2.32 7 3 C7.66 3 8.32 3 9 3 C9.33 4.65 9.66 6.3 10 8 C6.25 9.125 6.25 9.125 4 8 C2.67139075 7.64830932 1.33841672 7.31229724 0 7 C-0.2475 7.639375 -0.495 8.27875 -0.75 8.9375 C-2 11 -2 11 -4.125 11.75 C-5.053125 11.87375 -5.053125 11.87375 -6 12 C-5.67 10.35 -5.34 8.7 -5 7 C-3.68 7 -2.36 7 -1 7 C-1.57344937 4.13275314 -1.8614515 3.1385485 -4 1 C-2 0 -2 0 0 0 Z " fill="#321F0E" transform="translate(66,17)"/>
<path d="M0 0 C-0.185625 0.763125 -0.37125 1.52625 -0.5625 2.3125 C-1.22819173 5.08967375 -1.22819173 5.08967375 0 8 C-0.66 8 -1.32 8 -2 8 C-2 8.99 -2 9.98 -2 11 C-3.32 11.33 -4.64 11.66 -6 12 C-5.67 11.01 -5.34 10.02 -5 9 C-5.66 9 -6.32 9 -7 9 C-7.33 9.66 -7.66 10.32 -8 11 C-10 8 -10 8 -10 5 C-9.34 5 -8.68 5 -8 5 C-8 3.68 -8 2.36 -8 1 C-4.93251126 -0.86240388 -3.40254489 -1.2151946 0 0 Z " fill="#321F0E" transform="translate(151,31)"/>
<path d="M0 0 C1.98 0.66 3.96 1.32 6 2 C5.34 2.66 4.68 3.32 4 4 C4 3.34 4 2.68 4 2 C3.01 2.33 2.02 2.66 1 3 C0.67 2.01 0.34 1.02 0 0 Z M-2 4 C-1.34 4 -0.68 4 0 4 C0 4.66 0 5.32 0 6 C-0.66 6 -1.32 6 -2 6 C-1.01 7.32 -0.02 8.64 1 10 C0.01 11.485 0.01 11.485 -1 13 C-6.75 11.125 -6.75 11.125 -9 10 C-8.25 8.0625 -8.25 8.0625 -7 6 C-4.9375 5.3125 -4.9375 5.3125 -3 5 C-2.67 4.67 -2.34 4.34 -2 4 Z " fill="#504032" transform="translate(30,185)"/>
<path d="M0 0 C3.375 -0.1875 3.375 -0.1875 7 0 C7.66 0.99 8.32 1.98 9 3 C6.54453034 3.86329773 4.08621957 4.71589436 1.625 5.5625 C0.92632812 5.80935547 0.22765625 6.05621094 -0.4921875 6.31054688 C-2.30959075 6.93091049 -4.15391397 7.47106524 -6 8 C-8 7 -8 7 -9 5 C-8.34 4.34 -7.68 3.68 -7 3 C-7 3.66 -7 4.32 -7 5 C-2.76915097 3.31192092 -2.76915097 3.31192092 0 0 Z " fill="#4A3C31" transform="translate(66,24)"/>
<path d="M0 0 C1.32 0.33 2.64 0.66 4 1 C5.32642089 7.2703533 5.32642089 7.2703533 3.9375 10.375 C1.3867751 12.51431765 -0.73261975 12.7095662 -4 13 C-3.67 11.68 -3.34 10.36 -3 9 C-1.35 8.67 0.3 8.34 2 8 C2 6.68 2 5.36 2 4 C1.34 3.67 0.68 3.34 0 3 C0 2.01 0 1.02 0 0 Z " fill="#4B3F33" transform="translate(116,0)"/>
<path d="M0 0 C2.375 0.3125 2.375 0.3125 5 1 C5.66 1.99 6.32 2.98 7 4 C4.87875034 4.86343824 2.75286928 5.71550648 0.625 6.5625 C-1.15003906 7.27599609 -1.15003906 7.27599609 -2.9609375 8.00390625 C-6 9 -6 9 -8 8 C-6.42898506 4.85797013 -4.23027335 4.07675778 -1 3 C-0.67 2.01 -0.34 1.02 0 0 Z " fill="#5C4E40" transform="translate(124,174)"/>
<path d="M0 0 C0.99 0.33 1.98 0.66 3 1 C2.67 1.33 2.34 1.66 2 2 C2.495 2.37125 2.99 2.7425 3.5 3.125 C5.59755514 5.74694393 5.21743835 7.73842472 5 11 C4.01 11 3.02 11 2 11 C2 10.34 2 9.68 2 9 C1.34 9 0.68 9 0 9 C-0.84454356 5.62182575 -1.10844919 3.32534757 0 0 Z " fill="#311E0F" transform="translate(102,175)"/>
<path d="M0 0 C-1.03491649 2.82249951 -1.69915265 3.83374226 -4.375 5.3125 C-7.10579853 6.02770914 -8.39189261 5.9659657 -11 5 C-10.1875 3.0625 -10.1875 3.0625 -9 1 C-5.8035914 -0.06546953 -3.34252724 -0.07427838 0 0 Z " fill="#3F2E22" transform="translate(99,28)"/>
<path d="M0 0 C2.475 0.99 2.475 0.99 5 2 C2.13879225 3.90747183 -0.35254993 5.00353706 -3.5625 6.1875 C-4.53316406 6.55230469 -5.50382812 6.91710938 -6.50390625 7.29296875 C-9 8 -9 8 -11 7 C-10.67 6.01 -10.34 5.02 -10 4 C-9.2575 3.855625 -8.515 3.71125 -7.75 3.5625 C-6.8425 3.376875 -5.935 3.19125 -5 3 C-4.2575 2.855625 -3.515 2.71125 -2.75 2.5625 C-2.1725 2.376875 -1.595 2.19125 -1 2 C-0.67 1.34 -0.34 0.68 0 0 Z " fill="#605349" transform="translate(109,32)"/>
<path d="M0 0 C0 0.66 0 1.32 0 2 C-1.96722008 3.38123963 -3.96868328 4.71488126 -6 6 C-6.33 6.33 -6.66 6.66 -7 7 C-8.32594105 7.36162029 -9.65938457 7.69728039 -11 8 C-11.33 7.01 -11.66 6.02 -12 5 C-8.86437565 1.16757024 -4.85172875 0 0 0 Z " fill="#4C3E32" transform="translate(135,35)"/>
<path d="M0 0 C3.02821137 1.00940379 5.36107824 2.21694476 8 4 C8 4.66 8 5.32 8 6 C7.34 6 6.68 6 6 6 C5.67 6.99 5.34 7.98 5 9 C3.62437146 7.71034824 2.29233607 6.37310707 1 5 C1 4.34 1 3.68 1 3 C0.01 2.34 -0.98 1.68 -2 1 C-1.34 0.67 -0.68 0.34 0 0 Z " fill="#4A3727" transform="translate(55,41)"/>
<path d="M0 0 C-1 3 -1 3 -3.375 4.1875 C-6 5 -6 5 -9 5 C-9 4.34 -9 3.68 -9 3 C-10.32 3.33 -11.64 3.66 -13 4 C-12 2 -12 2 -9.78515625 1.11328125 C-8.88667969 0.84902344 -7.98820312 0.58476562 -7.0625 0.3125 C-6.16660156 0.04050781 -5.27070312 -0.23148438 -4.34765625 -0.51171875 C-2 -1 -2 -1 0 0 Z " fill="#605348" transform="translate(75,14)"/>
<path d="M0 0 C1.6875 2.5625 1.6875 2.5625 3 5 C2.01 5.495 2.01 5.495 1 6 C-2.0625 4.75 -2.0625 4.75 -5 3 C-5.33 2.01 -5.66 1.02 -6 0 C-3 -1 -3 -1 0 0 Z " fill="#4B3A2D" transform="translate(20,63)"/>
<path d="M0 0 C0.91007812 0.00902344 1.82015625 0.01804687 2.7578125 0.02734375 C3.45648438 0.03894531 4.15515625 0.05054687 4.875 0.0625 C2.02021674 1.96568884 0.45558692 2.5244099 -2.8125 3.1875 C-3.62074219 3.35507812 -4.42898437 3.52265625 -5.26171875 3.6953125 C-5.87660156 3.81648438 -6.49148437 3.93765625 -7.125 4.0625 C-7.125 3.0725 -7.125 2.0825 -7.125 1.0625 C-4.60024538 -0.19987731 -2.81299534 -0.03606404 0 0 Z " fill="#57463E" transform="translate(52.125,31.9375)"/>
<path d="M0 0 C0.66 0.33 1.32 0.66 2 1 C1.38125 1.0825 0.7625 1.165 0.125 1.25 C-2.15354435 1.79278299 -2.15354435 1.79278299 -3.0625 3.875 C-3.5265625 4.926875 -3.5265625 4.926875 -4 6 C-5.5 7.75 -5.5 7.75 -7 9 C-7.66 9 -8.32 9 -9 9 C-8.67 7.68 -8.34 6.36 -8 5 C-7.34 5 -6.68 5 -6 5 C-6 4.34 -6 3.68 -6 3 C-4.03533587 1.93224776 -2.03144641 0.93446535 0 0 Z " fill="#685D4E" transform="translate(12,34)"/>
<path d="M0 0 C-1.32 0.33 -2.64 0.66 -4 1 C-4 2.32 -4 3.64 -4 5 C-6.875 5.125 -6.875 5.125 -10 5 C-10.66 4.34 -11.32 3.68 -12 3 C-10.3789897 2.30314502 -8.75303934 1.61777139 -7.125 0.9375 C-6.22007812 0.55464844 -5.31515625 0.17179687 -4.3828125 -0.22265625 C-2 -1 -2 -1 0 0 Z " fill="#655549" transform="translate(147,31)"/>
<path d="M0 0 C1.32 0.66 2.64 1.32 4 2 C2.75579353 2.5345256 1.50429064 3.05208611 0.25 3.5625 C-0.44609375 3.85253906 -1.1421875 4.14257812 -1.859375 4.44140625 C-4.30012784 5.07831803 -5.6403655 4.80248831 -8 4 C-8 3.01 -8 2.02 -8 1 C-5.36 1.33 -2.72 1.66 0 2 C0 1.34 0 0.68 0 0 Z " fill="#55453A" transform="translate(122,50)"/>
<path d="M0 0 C-0.33 0.99 -0.66 1.98 -1 3 C-5.43028188 4.65049717 -9.29050618 5.22973141 -14 5 C-4.38461538 0 -4.38461538 0 0 0 Z " fill="#6B5D53" transform="translate(153,156)"/>
<path d="M0 0 C-2.84303439 2.84303439 -6.12886982 2.90504775 -10 3 C-12.2578125 2.51953125 -12.2578125 2.51953125 -14 2 C-4.58997722 -1.62870159 -4.58997722 -1.62870159 0 0 Z " fill="#625349" transform="translate(55,44)"/>
<path d="M0 0 C0.66 0.33 1.32 0.66 2 1 C4.3329866 1.04022391 6.66706666 1.04320247 9 1 C5.49461443 2.96301592 1.86648272 3.95902388 -2 5 C-2.33 4.01 -2.66 3.02 -3 2 C-2.01 1.34 -1.02 0.68 0 0 Z " fill="#65564C" transform="translate(77,21)"/>
<path d="M0 0 C0.33 0.66 0.66 1.32 1 2 C2.6396875 1.443125 2.6396875 1.443125 4.3125 0.875 C5.529375 0.58625 6.74625 0.2975 8 0 C8.99 0.66 9.98 1.32 11 2 C5.555 3.485 5.555 3.485 0 5 C-0.33 4.01 -0.66 3.02 -1 2 C-0.67 1.34 -0.34 0.68 0 0 Z " fill="#615249" transform="translate(58,27)"/>
<path d="M0 0 C-0.33 0.99 -0.66 1.98 -1 3 C-1.33 2.67 -1.66 2.34 -2 2 C-3.32 3.32 -4.64 4.64 -6 6 C-6.66 5.67 -7.32 5.34 -8 5 C-7.67 4.34 -7.34 3.68 -7 3 C-7.66 2.67 -8.32 2.34 -9 2 C-3.375 0 -3.375 0 0 0 Z " fill="#5B4940" transform="translate(24,31)"/>
<path d="M0 0 C0 0.66 0 1.32 0 2 C-1.4117783 2.53394179 -2.82970244 3.05165104 -4.25 3.5625 C-5.03890625 3.85253906 -5.8278125 4.14257812 -6.640625 4.44140625 C-9.19103452 5.04522837 -10.55322229 4.8473932 -13 4 C-3.95652174 0 -3.95652174 0 0 0 Z " fill="#706257" transform="translate(58,19)"/>
<path d="M0 0 C1.65 0 3.3 0 5 0 C5 1.32 5 2.64 5 4 C3.35 4 1.7 4 0 4 C0 2.68 0 1.36 0 0 Z " fill="#35210B" transform="translate(91,12)"/>
<path d="M0 0 C0 0.99 0 1.98 0 3 C-0.66 2.67 -1.32 2.34 -2 2 C-2.66 2.66 -3.32 3.32 -4 4 C-4 3.34 -4 2.68 -4 2 C-5.32 2 -6.64 2 -8 2 C-8 1.34 -8 0.68 -8 0 C-4.71023192 -1.09658936 -3.28696233 -0.79953138 0 0 Z " fill="#4B3B31" transform="translate(95,8)"/>
<path d="M0 0 C2.31 0 4.62 0 7 0 C5 3 5 3 1.875 3.6875 C0.92625 3.790625 -0.0225 3.89375 -1 4 C-0.67 2.68 -0.34 1.36 0 0 Z " fill="#6E645A" transform="translate(113,9)"/>
<path d="M0 0 C2.31 0.66 4.62 1.32 7 2 C4.64046906 4.35953094 3.22104383 4.49141413 0 5 C-0.33 4.01 -0.66 3.02 -1 2 C-0.67 1.34 -0.34 0.68 0 0 Z " fill="#5E4A3F" transform="translate(74,66)"/>
<path d="M0 0 C2.475 0.495 2.475 0.495 5 1 C4.34 2.32 3.68 3.64 3 5 C2.01 4.67 1.02 4.34 0 4 C0 2.68 0 1.36 0 0 Z " fill="#301F11" transform="translate(122,168)"/>
<path d="M0 0 C0.99 0.33 1.98 0.66 3 1 C2.34 1 1.68 1 1 1 C1 1.66 1 2.32 1 3 C1.99 3.33 2.98 3.66 4 4 C1.69 4.33 -0.62 4.66 -3 5 C-1.125 1.125 -1.125 1.125 0 0 Z " fill="#615249" transform="translate(108,10)"/>
<path d="M0 0 C2.475 0.495 2.475 0.495 5 1 C4.34 2.32 3.68 3.64 3 5 C2.01 4.67 1.02 4.34 0 4 C0 2.68 0 1.36 0 0 Z " fill="#514335" transform="translate(2,172)"/>
<path d="M0 0 C0.66 0 1.32 0 2 0 C1.67 1.32 1.34 2.64 1 4 C-0.65 4.33 -2.3 4.66 -4 5 C-4 4.01 -4 3.02 -4 2 C-3.01 2 -2.02 2 -1 2 C-0.67 1.34 -0.34 0.68 0 0 Z " fill="#402F21" transform="translate(5,167)"/>
<path d="M0 0 C-2.35277269 2.72426311 -4.62496331 3.8141763 -8 5 C-7.75 3.125 -7.75 3.125 -7 1 C-4.09342573 -1.03460199 -3.47133392 -1.15711131 0 0 Z " fill="#301E11" transform="translate(116,44)"/>
<path d="M0 0 C0 0.66 0 1.32 0 2 C-2.90600261 3.25664978 -4.79604584 4 -8 4 C-7.67 3.01 -7.34 2.02 -7 1 C-4.52260646 0.09162237 -2.66420516 0 0 0 Z " fill="#5F5348" transform="translate(96,39)"/>
<path d="M0 0 C0.66 0.33 1.32 0.66 2 1 C2 2.65 2 4.3 2 6 C0.02 5.34 -1.96 4.68 -4 4 C-2.68 2.68 -1.36 1.36 0 0 Z " fill="#4C3E33" transform="translate(100,175)"/>
<path d="M0 0 C2.31 0 4.62 0 7 0 C5.01046676 1.98953324 3.59565478 2.97746933 1 4 C0.01 3.67 -0.98 3.34 -2 3 C-1.34 3 -0.68 3 0 3 C0 2.01 0 1.02 0 0 Z " fill="#64574E" transform="translate(141,170)"/>
<path d="M0 0 C1.32 1.32 2.64 2.64 4 4 C1.69 4.33 -0.62 4.66 -3 5 C-2.01 3.35 -1.02 1.7 0 0 Z " fill="#493A2E" transform="translate(82,63)"/>
</svg>
